<?xml version="1.0" encoding="utf-8"?>
<!-- Generator: Adobe Illustrator 23.1.0, SVG Export Plug-In . SVG Version: 6.00 Build 0)  -->
<svg version="1.1" id="Layer_1" xmlns="http://www.w3.org/2000/svg" xmlns:xlink="http://www.w3.org/1999/xlink" x="0px" y="0px"
	 viewBox="0 0 422 165" style="enable-background:new 0 0 422 165;" xml:space="preserve">
<style type="text/css">
	.st0{fill:#EF3A24;}
	.st1{fill:#303030;}
	.st2{fill:#444445;}
	.st3{stroke:#000000;stroke-width:0.25;stroke-miterlimit:10;}
</style>
<g>
	<g>
		<path class="st0" d="M67.1,24.5c0.3,0.1,0.6,0.2,0.9,0.2c3.9-0.1,7.7,0.6,11.5,1.5c5.1,1.2,9.8,3.2,14.3,5.8
			c5.2,3,9.8,6.8,13.6,11.3c-0.9,1.3-1.8,2.5-2.5,3.7c-0.7,1.4-0.8,3-0.4,4.6c0.1,0.6,0.2,1.2-0.5,1.4c-0.6,0.2-1.2,0-1.5-0.7
			c-0.5-1.1-1.5-1.7-2.5-2.1c-0.7-0.3-1.4-0.6-2.1-0.7c-2-0.2-3.5-1.3-4.8-2.7C90.6,44,87.5,42,84,40.6c-2.7-1.1-5.5-1.9-8.4-2.6
			c-1.6-0.4-3.4-0.4-5.1-0.6c-1.6-0.1-3.3-0.3-4.9-0.2c-3.4,0.2-6.8,0.7-10.1,1.6c-4.7,1.4-8.9,3.5-12.8,6.3c-3.8,2.8-7,6.1-9.6,10
			c-1.5,2.3-2.9,4.7-3.9,7.2c-1,2.5-1.8,5.1-2.4,7.7c-0.8,3.7-1,7.4-0.7,11.1c0.2,2.6,0.7,5.3,1.3,7.9c0.9,4.2,2.7,8,5,11.6
			c2.6,4.1,5.9,7.6,9.7,10.6c2.6,2,5.4,3.7,8.4,5c1.3,0.6,2.5,1,3.9,1.6c-1.2,0.7-2.3,1.4-3.4,2c-2.3,1.2-2.6,3.5-2.1,5.1
			c0.4,1.5,1.3,2.7,2.2,3.8c0.5,0.7,1.1,1.4,1.6,2.1c0,0.1-0.1,0.1-0.1,0.2c-2-0.7-4.1-1.2-6-2.1c-3.1-1.5-6.2-3-9.2-4.8
			c-3.4-2-6.3-4.6-9.1-7.4c-3.1-3.2-5.9-6.7-8.2-10.5c-2.4-4.1-4.4-8.4-5.6-13.1c-0.7-2.8-1.3-5.6-1.6-8.5c-0.3-2.5-0.4-5.1-0.4-7.7
			c0-2.1,0.4-4.2,0.6-6.3c0.2-1.9,0.4-3.7,0.9-5.5c0.4-1.7,1.2-3.4,1.8-5.1c3.1-8.4,8-15.6,14.6-21.6c2.9-2.6,6-4.8,9.4-6.8
			c3.6-2.1,7.4-3.7,11.4-4.9c3.1-0.9,6.4-1.6,9.6-1.9c1.4-0.1,2.8-0.1,4.2-0.2c0.3,0,0.6-0.1,0.9-0.2C66.3,24.5,66.7,24.5,67.1,24.5
			z"/>
		<path class="st0" d="M66.3,137.2c2.1,0,4.3,0.1,6.4,0c7.5-0.4,14.6-2.1,21.1-5.9c2.9-1.7,5.7-3.5,8.3-5.4c2.4-1.8,4.7-3.9,6.8-6
			c2-2,3.8-4.2,5.5-6.5c1.7-2.4,3.3-4.9,4.7-7.5c1-1.8,1.7-3.8,2.5-5.7c2.9-7.3,6.3-14.3,13-19c4.1-2.9,8.6-4.6,13.7-4.5
			c8.9,0.1,17.9,0.1,26.8,0.2c10.7,0.1,21.4,0.2,32.1,0.3c10.7,0.1,21.3,0.2,32,0.3c10.7,0.1,21.4,0.2,32.1,0.3
			c10.7,0.1,21.4,0.2,32.1,0.3c10.7,0.1,21.4,0.2,32.1,0.3c10.7,0.1,21.4,0.2,32.1,0.3c4.6,0,9.1,0,13.7,0c0,0.1,0,0.3,0,0.4
			c-3.2,0-6.5,0-9.7,0c-10.3,0.2-20.6,0.4-31,0.5c-6.2,0.1-12.4,0.2-18.7,0.3c-12.2,0.3-24.4,0.6-36.6,0.8
			c-9.9,0.2-19.7,0.4-29.6,0.6c-6.1,0.1-12.2,0.2-18.3,0.3c-7.9,0.2-15.7,0.3-23.6,0.5c-8.5,0.2-17.1,0.3-25.6,0.5
			c-7,0.1-14,0.3-21,0.5c-3.7,0.1-7.4,0-11.1,0c-8.2,0-14.4,4.8-16.5,12.8c-1.3,5-3.8,9.6-6.7,13.9c-6.5,9.6-14.6,17.6-24.9,23.1
			c-6.1,3.3-12.5,5.6-19.3,6.6c-6,0.8-12,1.1-17.9-0.6c-1.6-0.5-3.2-1.2-4.8-1.7C66.3,137.4,66.3,137.3,66.3,137.2z"/>
		<path class="st1" d="M57.9,123.2c-0.5-0.9-0.9-1.6-1.3-2.3c-0.3-0.4-0.2-0.7,0.2-0.9c3.4-2.8,5.9-6.4,8.4-10
			c0.9-1.4,2.1-2.4,3.9-2.7c1.3-0.2,2-1.1,2.7-2.2c1-1.7,1.2-3.6,1.5-5.4c0.5-2.9,1-5.7,2.2-8.4c0.1-0.3,0.1-0.6,0.1-0.9
			c0-1.9-0.2-3.9,0-5.8c0.1-1.3,0.9-2.4,1.8-3.3c0.6-0.6,1.5-1,2.1-1.7c0.6-0.7,1-1.5,1.5-2.3c1.6-2.5,3.1-4.9,4.7-7.4
			c1.7-2.8,3.4-5.5,5-8.3c0.4-0.6,0.5-1.4,0.8-2.1c2.4,0.2,4.1,0.9,4.7,2.4c0.6,1.4,1.1,2.8,1.7,4.2c0.2,0.6,0.6,1.1,0.9,1.7
			c0.1,0,0.1,0,0.2-0.1c0-0.2,0.1-0.4,0-0.6c-0.7-2.1-1.3-4.2-2.1-6.2c-0.4-1.1-1-2-2.4-2.2c-1.9-0.3-3.9-0.8-5.7-1.3
			c-1.8-0.5-3.6-1.2-5.4-1.9c-1-0.4-2-0.5-2.9-0.1c-2.3,1-4.5,1.9-6.7,3.1c-1.7,1-3.4,2.2-4.9,3.5c-0.6,0.5-1,1.3-1.5,2
			c-0.7,1.1-1.5,2.1-2.2,3.2c-0.7-0.2-0.9-0.6-0.6-1.4c0.2-0.4,0.5-0.8,0.7-1.3c0.1-0.3,0.2-0.6,0.1-0.9c0-0.1-0.5-0.3-0.7-0.2
			c-1.4,0.5-2.7,1.1-4,1.6c-0.4,0.2-0.8,0.3-1.2,0.4c-0.1-0.1-0.1-0.2-0.2-0.3c0.2-0.2,0.4-0.5,0.6-0.7c0.7-0.4,1.4-0.8,2.1-1.2
			c0.3-0.2,0.5-0.4,0.7-0.7c0-0.1-0.1-0.2-0.1-0.3c-1.6,0.3-3.1,0.6-4.7,0.9c0-0.1-0.1-0.2-0.1-0.4c0.5-0.3,1.1-0.5,1.6-0.8
			c0-0.1,0-0.1-0.1-0.2c-0.2,0-0.4,0.1-0.6,0c-0.2,0-0.4-0.1-0.6-0.2c0.1-0.2,0.2-0.5,0.4-0.5c0.8-0.3,1.7-0.4,2.5-0.7
			c0.5-0.2,0.9-0.5,1.4-0.7c-0.5-0.2-0.9-0.4-1.4-0.5c-0.5-0.2-1-0.3-1.5-0.4c0-0.1,0-0.2,0-0.3c0.9,0,1.9-0.1,2.8,0
			c3.1,0.4,5.8-0.5,8.1-2.4c2-1.6,4-3.5,6.1-5c2.5-1.8,5.2-3.1,8.5-2c2.3,0.7,4.7,1.4,7.1,2c0.4,0.1,0.9,0.1,1.4,0.2
			c2.1,0.1,4.2,0,6.1,0.9c1,0.5,2.1,0.9,2.7,2c0.3,0.5,2.3,1,3,0.8c0.9-0.3,1.5-1.1,1.5-2.1c0-0.7-0.1-1.4-0.2-2
			c-0.3-1.4-0.1-2.7,0.6-4c1.9-3.9,5.7-4.4,8.6-3c1.3,0.6,2.3,1.6,2.9,2.8c0.5,1,0.4,2.3-0.2,3.3c-0.5,0.8-0.7,1.6-0.5,2.5
			c0.2,0.7,0.2,1.4,0.2,2.1c-1.2,0.4-1.4,0.8-1.6,2.1c-0.1,0.6-0.3,1.2-0.5,1.8c-0.3,0.6-0.8,0.8-1.5,0.8c-0.8,0-1.7,0-2.5,0
			c-1.2,0.1-2,0.9-2.4,1.8c-0.5,1-0.9,2-0.9,3.1c-0.1,3.6-1.9,6.1-4.8,7.9c-0.5,0.3-1.4,0.2-2.1,0.3c-0.5,0-0.9,0-1.4,0
			c0.1,0.1,0.1,0.2,0.2,0.3c-0.3,0.4-0.4,1-0.8,1.2c-1.9,1.4-3.9,2.7-5.8,4.1c-1.2,0.9-2.3,2-3.4,3.1c-0.2,0.2-0.4,0.8-0.3,1.1
			c0.1,0.2,0.6,0.4,0.9,0.4c3.3-0.2,6.4,0.5,9.4,1.5c1.6,0.5,3.2,1.3,4.7,2.1c2.2,1.1,4.3,2.4,6.1,4.1c1.4,1.4,2.3,3.8,1.3,5.6
			c-0.5,0.9-1.4,1.7-2.3,2.2c-2.6,1.6-5.4,2.6-8.2,3.7c-1.8,0.7-3.6,1.7-5.4,2.6c-1.5,0.8-2.9,1.5-4.3,2.4c-0.7,0.5-1.4,1.1-2,1.7
			c-0.4,0.4-0.4,0.9,0.1,1.3c0.6,0.4,0.5,0.8,0,1.1c-1.1,0.7-2.1,1.6-3.6,0.7c-0.3-0.2-0.7-0.2-1.1-0.4c0,0.1-0.1,0.1-0.1,0.2
			c0.6,0.4,1.2,0.8,1.9,1.3c-0.4,1-0.8,1.9-1.3,2.8c-0.6,1-0.8,2.1-0.8,3.2c0,1-0.5,1.6-1.3,2.1c-1-1.4-1.2-1.4-1.7-0.3
			c-0.3-0.8-0.7-1.4-0.8-2.1c-0.3-1.8-0.5-3.6,0.4-5.3c0.5-0.9,0.9-1.8,1.5-2.6c0.4-0.6,0.4-1.3,0.2-2c-0.4-1.2-0.5-2.5-0.1-3.7
			c0.1-0.4,0.4-0.7,0.5-1.1c0.1,0,0.2,0,0.2,0c0,1.2,0,2.4,0,3.6c0.1,0,0.1,0,0.2,0c0.3-0.9,0.6-1.8,1-2.7c0.5-1.3,0.5-1.3,1.8-1.2
			c0.4,0,0.7,0.1,1.2,0.2c-0.7,1.4-0.9,2.7,0,3.9c0.1,0,0.2,0,0.3,0c0-0.5-0.1-1-0.1-1.4c0-1.4,0.3-1.9,1.5-2.3
			c2.3-0.6,3.6-2.4,5-4.1c1-1.2,1.8-2.6,2.9-3.7c1.1-1.2,2.7-1.5,4.3-1.4c0.9,0,1.8,0.3,2.7,0.5c0.3,0.1,0.6,0.1,0.9,0
			c-0.5-0.7-1.3-1-2.1-1c-2.1,0-4.2,0.1-6.3,0.1c-3.9,0-7.8-0.1-11.6-1c-1.9-0.4-3.8-1.1-5.2-2.5c-0.5-0.5-0.8-1.2-1.2-1.8
			c-0.1-0.2-0.2-0.5-0.4-0.8c-0.3,1.6,0.9,3.6,2.4,4.5c1.5,1,3.2,1.4,5.1,1.5c-0.9,2-1.6,4-2.5,5.9c-1.4,2.7-2.9,5.4-4.3,8
			c-1,1.7-2.3,3-4.1,4c-2.4,1.2-4.9,2.5-7.3,3.9c-2.8,1.6-5.5,3.5-7.9,5.7c-1,1-0.9,1.9,0.4,2.5c0.2,0.1,0.4,0.6,0.3,0.8
			c-0.3,1.4-0.8,2.8-1.2,4.2c-0.1,0.2-0.1,0.4-0.1,0.7c-0.2,2.1,0.2,2.7,2.3,3c0.7,0.1,1.1,0.5,1.4,1.4c-1.4-0.2-2.7-0.3-4.1-0.5
			c0,0.2,0,0.3-0.1,0.5c1.2,0.3,2.5,0.5,3.8,0.8c-0.4,0.1-0.9,0.3-1.3,0.3c-0.9,0-1.8,0.1-2.7,0c-1.3-0.1-2.1-1.1-2.5-2.2
			c-1.3-2.8-2.4-5.7-3.6-8.5c-0.1-0.2-0.2-0.4-0.3-0.7c-0.1,0-0.2,0-0.3,0.1c0.1,1.1,0.2,2.2,0.3,3.4c-1.3-1.4-2.2-3-2.3-5
			c0-0.2,0.2-0.6,0.5-0.7c1-0.4,2.1-0.7,3.2-0.9c0.3-0.1,0.7,0.1,0.9,0.3C56,121.9,56.6,122.8,57.9,123.2z"/>
		<path class="st2" d="M89.6,59.6c-1.8,2.8-3.5,5.6-5.2,8.3c-1.8,2.8-3.6,5.6-5.2,8.5c-0.6,1-1.6,1.6-2.4,2.3
			c-2.9,2.5-4.4,5.6-3.7,9.4c0.4,2.1-0.2,4-0.5,5.9c-0.5,2.9-1,5.8-1.3,8.8c-0.2,2-1.8,3.2-3.8,3c-3.5-0.3-6.8-1.3-10-2.8
			c-4.2-2-7.6-4.9-10.2-8.7c-2.8-3.9-4.4-8.3-4.9-13.1c-0.9-9.4,2.4-17.2,9.2-23.5c3.7-3.4,8.2-5.4,13.1-6.2
			c1.9-0.3,3.8-0.4,5.7-0.5c0.9,0,1.9,0.1,3,0.2c-0.3,0.5-0.6,1-0.9,1.4c-2.5,2.6-5.3,4.6-9,5.1c-1.2,0.2-2.5-0.1-3.7,0
			c-0.5,0-1.1,0.2-1.6,0.4c-0.7,0.4-0.2,0.9,0.2,1.4c-0.3,0.2-0.6,0.4-0.9,0.6c-0.4,0.4-0.9,0.9-0.5,1.6c0.1,0.1,0,0.3,0,0.4
			c-0.2,1.4-0.1,1.6,1.2,1.8c0,0.4,0,0.8,0,1.3c0,1,0.5,1.3,1.4,1c0.6-0.2,1.2-0.6,1.7-0.9c0.3-0.2,0.6-0.4,0.9-0.5
			c0.4-0.1,0.8-0.1,1.2-0.1c0,0.3,0,0.7-0.1,1c-0.2,1,0.1,1.8,1,2.2c0.7,0.3,1.3,0.1,1.8-0.7c2-3.5,5.1-5.9,8.3-8.1
			c2.3-1.5,4.9-2.7,7.7-2.4c1.8,0.2,3.5,1,5.2,1.6C88.1,58.7,88.8,59.2,89.6,59.6z"/>
		<path class="st2" d="M66.2,134.3c0-1.4-0.8-1.9-1.9-2.2c-2.1-0.6-2.6-1.4-2.1-3.5c0.3-1.2,0.7-2.3,1.1-3.5
			c0.3-0.8-0.2-1.8-1.5-2.3c1.2-1.1,2.4-2.1,3.6-3.1c0.1-0.1,0.4-0.2,0.6-0.1c4.8,0.1,9.5-0.7,14-2.2c0.2,0.9,0.3,1.7,0.5,2.5
			c0.4,1.3,2,2.3,3.6,2.2c1.2-0.1,2.2-1.3,2.3-2.8c0.2-3.4,1.7-5.9,4.8-7.4c0.5-0.2,0.9-0.8,1.3-1.2c0.2-0.2,0.4-0.5,0.6-0.7
			c1.5-1.5,2.9-2.9,4.4-4.4c0.4-0.4,0.8-0.7,1.2-0.9c2.6-0.9,5.2-1.8,7.8-2.6c2.9-0.9,5.5-2.1,6.9-4.9c1.9-3.9,1.4-5.3-1.7-8.2
			c-1.3-1.2-2.9-2.1-4.4-3.2c-0.2-0.2-0.4-0.5-0.4-0.8c0.1-2.3,0.3-4.6,0.5-6.9c0-0.1,0-0.3,0-0.5c0.7,0.6,1.4,1.1,2.1,1.6
			c2.6,1.9,4.3,1.9,6.9-0.1c1.7-1.2,2.9-2.9,3.9-4.6c0.3-0.4,0.5-0.9,0.9-1.3c-0.1,1.7-0.1,3.4-0.2,5.1c-0.2,2.6-0.3,5.3-0.7,7.8
			c-0.4,2.7-1,5.5-1.8,8.1c-0.9,2.9-1.9,5.7-3.3,8.4c-1.2,2.6-2.8,5-4.4,7.4c-1.6,2.3-3.5,4.6-5.4,6.6c-1.6,1.7-3.5,3.2-5.4,4.7
			c-1.2,1-2.4,2-3.7,2.7c-2.6,1.5-5.2,3-7.9,4.3c-6.1,2.8-12.6,4.2-19.1,5.6C68.3,134.1,67.3,134.1,66.2,134.3z"/>
		<path class="st1" d="M105.2,72.2c2.4-1.4,3.7-3.4,3.6-6.2c0.1,0,0.2,0,0.3-0.1c1.3,1.8,2.5,3.6,3.8,5.4c2.5-1.5,4.9-2.8,7.3-4.4
			c2-1.3,3.3-3.1,4.2-5.3c0.6-1.6,1-3,0-4.6c1,0.2,1.3,0.4,1.6,1.3c0.3,1.1,0.8,2.1,1.2,3.2c0.2-0.1,0.3-0.1,0.5-0.2
			c-0.2-0.5-0.3-1.1-0.6-1.6c-0.5-0.7-0.6-1.4-0.4-2.2c0.2-0.8,0.3-1.6,0.5-2.4c0.1,0,0.2,0,0.3,0c0,1.2,0,2.5,0,3.7
			c0.1,0,0.2,0.1,0.3,0.1c0.5-1,0.9-2,1.4-3c0.1,0,0.1,0,0.2-0.1c0.1,0.9,0.4,1.7,0.3,2.6c-0.1,0.9-0.5,1.7-0.8,2.5
			c0.1,0.1,0.1,0.1,0.2,0.2c0.4-0.5,0.9-1.1,1.3-1.6c0.1,0,0.1,0.1,0.2,0.1c-0.1,0.3-0.2,0.6-0.3,0.9c-0.4,0.9-0.9,1.7-1.4,2.6
			c-0.5,1-1.2,1.7-2.1,2.3c-1.2,0.8-2.3,1.7-3.2,2.8c-2.2,2.6-4.2,5.2-6.3,7.8c-0.7,0.8-1.6,1.5-2.4,2.2c-0.8,0.7-1.7,0.8-2.7,0.3
			c-2-1.1-3.7-2.5-5.1-4.2C106.5,73.7,105.9,73,105.2,72.2z"/>
		<path class="st2" d="M117,59.3c1,2.3,2,4.5,2.9,6.4c-2.4,1.1-4.7,2.1-6.9,3.1c-0.8-1.2-1.6-2.5-2.5-3.7c-1-1.4-0.2-3.7,1.4-4.1
			c0.5-0.1,1-0.1,1.4-0.1C114.8,61.1,116,60.7,117,59.3z"/>
	</g>
	<g>
		<path d="M138.8,68l13.6-22.1l-3.6-5.9h37.5l-3.6,5.9h-18.9l-3.2,5H177l-3.4,5.5h-16.3L150.2,68H138.8z"/>
		<path d="M177.1,68l17.2-28h11.4l-17.2,28H177.1z"/>
		<path d="M207.9,68l13.6-22.1H208l3.6-5.9h36.2l-3.6,5.9h-11.4L219.2,68H207.9z"/>
		<path d="M237.2,68l13.6-22.1l-3.6-5.9H281c7,0,7.3,3.5,5.8,5.9L273.2,68h-11.4l12.1-19.5c1.1-1.7,0.1-2.6-1.6-2.6h-10.1L248.5,68
			H237.2z"/>
		<path d="M283,68l13.6-22.1l-3.6-5.9h39.9l-3.6,5.9h-21.2l-3.2,5h16.9l-3.4,5.5h-16.8l-3.1,5h19.4l4,6.6H283z"/>
		<path d="M328.4,61.4H348c3.1,0,2.9-1.9,1.6-2.8l-6.1-4.3c-5.1-3.6-7.9-5.9-6.7-9.6c1.3-3.9,5.2-4.7,10.3-4.7h23.7l-3.6,5.9h-15.5
			c-1.9,0-2.3,1.5-1.2,2.3l5.9,4.2c4.1,2.8,6,5.4,5.1,9c-1,4-4.2,6.6-13,6.6h-24.2L328.4,61.4z"/>
		<path d="M367.1,61.4h19.6c3.1,0,2.9-1.9,1.6-2.8l-6.1-4.3c-5.1-3.6-7.9-5.9-6.7-9.6c1.3-3.9,5.2-4.7,10.3-4.7h23.7l-3.6,5.9h-15.5
			c-1.9,0-2.3,1.5-1.2,2.3l5.9,4.2c4.1,2.8,6,5.4,5.1,9c-1,4-4.2,6.6-13,6.6H363L367.1,61.4z"/>
	</g>
	<g>
		<path class="st3" d="M170,99.1c0,2-1.1,3-3.3,3h-9.3v5.9h-3.4V92.8h12.7c2.2,0,3.3,1,3.3,3V99.1z M166.6,98.2v-1.6
			c0-0.5-0.1-0.8-0.4-1c-0.2-0.1-0.6-0.2-1.1-0.2h-7.8v4h7.8c0.5,0,0.9-0.1,1.1-0.2C166.5,99.1,166.6,98.8,166.6,98.2z"/>
		<path class="st3" d="M193.2,104.4c0,1.4-0.3,2.4-0.8,2.9c-0.5,0.5-1.5,0.7-2.9,0.7h-11c-1.4,0-2.4-0.2-2.9-0.7s-0.8-1.4-0.8-2.9
			v-8c0-1.4,0.3-2.4,0.8-2.9c0.5-0.5,1.5-0.7,2.9-0.7h11c1.4,0,2.4,0.2,2.9,0.7c0.5,0.5,0.8,1.4,0.8,2.9V104.4z M189.7,105.2v-9.7
			h-11.4v9.7H189.7z"/>
		<path class="st3" d="M222.1,92.8l-5.7,15.2h-2.3L210,97.5l-4.2,10.5h-2.4l-5.7-15.2h3.6L205,103l4-10.2h2.4l4,10.2l3.6-10.2H222.1
			z"/>
		<path class="st3" d="M242.3,108h-15.4V92.8h15.2v2.6h-11.8v3.4h6.9v2.6h-6.9v3.8h11.9V108z"/>
		<path class="st3" d="M266.2,108h-5l-6-5.8H252v5.8h-3.4V92.8h12.7c2.2,0,3.3,1,3.3,3v3.6c0,1.5-0.6,2.4-1.7,2.7
			c-0.4,0.1-1.6,0.2-3.6,0.2L266.2,108z M261.3,98.5v-1.8c0-0.5-0.1-0.8-0.4-1c-0.2-0.1-0.6-0.2-1.1-0.2H252v4.3h7.8
			c0.5,0,0.9-0.1,1.1-0.2C261.2,99.3,261.3,99,261.3,98.5z"/>
		<path class="st3" d="M300.3,108h-3.5v-6.6H286v6.6h-3.5V92.8h3.5v5.9h10.8v-5.9h3.5V108z"/>
		<path class="st3" d="M325.8,104.4c0,1.4-0.3,2.4-0.8,2.9c-0.5,0.5-1.5,0.7-2.9,0.7h-11c-1.4,0-2.4-0.2-2.9-0.7s-0.8-1.4-0.8-2.9
			v-8c0-1.4,0.3-2.4,0.8-2.9c0.5-0.5,1.5-0.7,2.9-0.7h11c1.4,0,2.4,0.2,2.9,0.7c0.5,0.5,0.8,1.4,0.8,2.9V104.4z M322.4,105.2v-9.7
			h-11.4v9.7H322.4z"/>
		<path class="st3" d="M349.8,104.4c0,1.4-0.3,2.4-0.8,2.9c-0.5,0.5-1.5,0.7-2.9,0.7h-9.4c-1.4,0-2.4-0.2-2.9-0.7
			c-0.5-0.5-0.8-1.4-0.8-2.9V92.8h3.5v12.4h9.9V92.8h3.5V104.4z"/>
		<path class="st3" d="M373.4,104.4c0,1.4-0.3,2.4-0.8,2.9s-1.5,0.7-2.9,0.7h-9.2c-1.5,0-2.5-0.3-3-0.8s-0.7-1.6-0.7-3.2l3.1-0.6
			v1.8h10.5v-3.5H361c-1.4,0-2.4-0.2-2.9-0.7s-0.8-1.4-0.8-2.9v-1.7c0-1.4,0.3-2.4,0.8-2.9c0.5-0.5,1.5-0.7,2.9-0.7h8.5
			c1.4,0,2.4,0.3,2.9,0.8c0.5,0.5,0.8,1.5,0.8,2.9l-3.1,0.7v-1.7h-9.8v3.3h9.3c1.4,0,2.4,0.2,2.9,0.7c0.5,0.5,0.8,1.4,0.8,2.9V104.4
			z"/>
		<path class="st3" d="M395.8,108h-15.4V92.8h15.2v2.6h-11.8v3.4h6.9v2.6h-6.9v3.8h11.9V108z"/>
	</g>
</g>
</svg>
