<?xml version="1.0" encoding="UTF-8"?>
<svg id="Layer_1" xmlns="http://www.w3.org/2000/svg" version="1.1" viewBox="0 0 40 40">
  <!-- Generator: Adobe Illustrator 29.7.1, SVG Export Plug-In . SVG Version: 2.1.1 Build 8)  -->
  <defs>
    <style>
      .st0 {
        fill: none;
        stroke: #fff;
        stroke-miterlimit: 10;
        stroke-width: 1.42px;
      }
    </style>
  </defs>
  <path class="st0" d="M19.29,23.05v-13.71s-.04-1.35-1.34-1.97c-.77-.37-1.7-.34-2.45.06-.58.3-1.17.84-1.2,1.79-.06,1.9.08,18.05.08,18.05,0,0-6.24-3.79-8.51,0,0,0-.93,1.3,1.69,2.02,0,0,4.25,1.47,6.4,7.16,0,0,1.26,2.61,3.62,2.61h12.14c.73,0,1.44-.22,2.01-.67.92-.72,2.09-2.07,2.19-4.3.17-3.71.34-11.54.34-11.54,0,0,.42-3.37-2.53-3.45,0,0-2.09-.13-2.16,2.68l-.05,1.73"/>
  <path class="st0" d="M19.29,23.49v-6.13s.32-2.15,2.91-1.9c0,0,2.34.13,2.34,2.59v5.44-4.41s.1-2.02,2.65-1.97c0,0,2.25-.07,2.46,1.97l-.12,4.41"/>
  <path class="st0" d="M13.02,17.55c-2.94-1.4-4.98-4.4-4.98-7.88C8.04,4.86,11.95.95,16.76.95s8.72,3.91,8.72,8.72c0,1.87-.59,3.59-1.58,5.01"/>
  <path class="st0" d="M12.86,12.92c-.76-.9-1.22-2.05-1.22-3.32,0-2.82,2.29-5.12,5.12-5.12s5.12,2.29,5.12,5.12c0,1.26-.46,2.41-1.21,3.31"/>
</svg>