<?xml version="1.0" encoding="UTF-8"?>
<svg id="Layer_1" xmlns="http://www.w3.org/2000/svg" version="1.1" viewBox="0 0 40 40">
  <!-- Generator: Adobe Illustrator 29.7.1, SVG Export Plug-In . SVG Version: 2.1.1 Build 8)  -->
  <defs>
    <style>
      .st0 {
        stroke-width: 1.21px;
      }

      .st0, .st1, .st2, .st3 {
        fill: none;
        stroke: #fff;
        stroke-miterlimit: 10;
      }

      .st1 {
        stroke-width: .42px;
      }

      .st2 {
        stroke-width: .57px;
      }

      .st3 {
        stroke-width: .28px;
      }
    </style>
  </defs>
  <g>
    <g>
      <path class="st2" d="M21.8,20.16l-2.19,2.07s-.45.46-1.25.19l-3.5-.81s-.59-.19-.39-.9c0,0,.15-.51.78-.45l3.39.42,1.52-1.75s1.25-1.34,2.79-.47c0,0,.9.58.6,1.84,0,0-.09.35-.52,1.01s-2.01,3.4-2.01,3.4l-6.5-1.74s-.68-.22-1.29.29l-2.45,2.51-.08-.12s-.38-.49.14-1.13,2.49-3.18,2.49-3.18c0,0,.38-.43,1.13-.28"/>
      <circle class="st2" cx="23.11" cy="15.42" r="2.27"/>
    </g>
    <path class="st2" d="M25,26.47v2.24c0,.85-.69,1.54-1.54,1.54h-5.66c-.85,0-1.54-.69-1.54-1.54v-1.08"/>
    <path class="st1" d="M22.54,30.3v.34c0,.18-.14.31-.31.31h-3.17c-.18,0-.31-.14-.31-.31v-.36"/>
    <path class="st1" d="M22.54,32.09v-.15c0-.18-.14-.31-.31-.31h-3.17c-.18,0-.31.14-.31.31v.15"/>
    <path class="st1" d="M17.64,32.23h5.99c.28,0,.51.22.51.51v.55h-7v-.55c0-.28.22-.51.51-.51h0Z"/>
    <path class="st2" d="M23.88,25.8l4.98-8.71.04.03c.59.4.77,1.18.42,1.79l-4.31,7.53-1.13-.64h0Z"/>
    <path class="st2" d="M10.76,25.76l-1.33,1.35c-.11.13-.11.32.01.43l.93.89c.11.1.27.12.4.03l3.62-2.49,5.37,1.41"/>
    <line class="st2" x1="20" y1="28.52" x2="13.24" y2="26.76"/>
    <path class="st2" d="M21,24.71l5.88-9.72c.29-.49.93-.64,1.41-.33l.72.46c.42.27.55.81.3,1.24l-6.2,10.78"/>
    <circle class="st2" cx="21.45" cy="27.66" r="1.69"/>
    <circle class="st2" cx="21.45" cy="27.68" r=".92"/>
    <line class="st3" x1="21.85" y1="31.62" x2="21.85" y2="31.05"/>
    <line class="st3" x1="19.44" y1="31.62" x2="19.44" y2="31.05"/>
  </g>
  <path class="st0" d="M34.09,19.43v17.28c0,1.01-.82,1.82-1.82,1.82H7.56c-1.01,0-1.82-.82-1.82-1.82v-17.28"/>
  <path class="st0" d="M7.23,19.33H2.47c-.69,0-1.25-.56-1.25-1.25v-1.53c0-.39.18-.75.48-.98L19.47,1.68c.36-.28.86-.28,1.22,0l17.67,13.94c.26.21.42.52.42.86v1.76c0,.61-.49,1.09-1.09,1.09h-5.23"/>
  <path class="st0" d="M30.87,9.76v-4.81c0-.24-.2-.44-.44-.44h-2.65c-.24,0-.44.2-.44.44v1.97"/>
</svg>