<?xml version="1.0" encoding="UTF-8"?>
<svg id="Layer_1" xmlns="http://www.w3.org/2000/svg" version="1.1" viewBox="0 0 40 40">
  <!-- Generator: Adobe Illustrator 29.7.1, SVG Export Plug-In . SVG Version: 2.1.1 Build 8)  -->
  <defs>
    <style>
      .st0 {
        fill: none;
        stroke: #fff;
        stroke-miterlimit: 10;
        stroke-width: 1.28px;
      }
    </style>
  </defs>
  <g>
    <path class="st0" d="M25.56,28.1l4.25-4.25c.71-.71,1.87-.71,2.58,0s.71,1.87,0,2.58l-6.8,6.8"/>
    <path class="st0" d="M23.73,24.78l4.25-4.25c.71-.71,1.87-.71,2.58,0s.71,1.87,0,2.58l-.76.76"/>
    <path class="st0" d="M21.9,21.45l4.25-4.25c.71-.71,1.87-.71,2.58,0,.71.71.71,1.87,0,2.58l-.82.82"/>
    <path class="st0" d="M13.79,24.4l10.52-10.52c.71-.71,1.87-.71,2.58,0,.71.71.71,1.87,0,2.58l-.83.83"/>
    <path class="st0" d="M25.58,33.24l-3.75,3.75c-1.59,1.59-3.8,2.4-6.04,2.21l-8.18-9.68c-1.13-1.13-1.13-2.95,0-4.08l6.91-7.33"/>
  </g>
  <g>
    <path class="st0" d="M22.81,15.38l-1.23-1.89c1.45-2.73,1.41-6.14-.4-8.9C19.07,1.35,15.17-.03,11.62.9l4.01,6.14-.88,3.71-3.75-.69L6.99,3.92c-2.28,2.87-2.59,6.99-.48,10.23,1.8,2.77,4.91,4.18,7.99,3.95l2.2,3.37"/>
    <path class="st0" d="M30.96,27.86l3.26,5c1.27,1.95.72,4.57-1.23,5.84-1.95,1.27-4.57.72-5.84-1.23l-2.29-3.51"/>
    <path class="st0" d="M31.84,35.06c.31.48.18,1.11-.3,1.43-.48.31-1.11.18-1.43-.3-.31-.48-.18-1.11.3-1.43.48-.31,1.11-.18,1.43.3Z"/>
  </g>
</svg>