<?xml version="1.0" encoding="UTF-8"?>
<svg id="Layer_1" xmlns="http://www.w3.org/2000/svg" version="1.1" viewBox="0 0 40 40">
  <!-- Generator: Adobe Illustrator 29.7.1, SVG Export Plug-In . SVG Version: 2.1.1 Build 8)  -->
  <defs>
    <style>
      .st0 {
        fill: #fff;
        stroke: #fff;
        stroke-miterlimit: 10;
      }
    </style>
  </defs>
  <path class="st0" d="M37.53,29.57h-3.65v-.62h3.65c.42,0,.76-.34.76-.76v-6.01c0-.39-.29-.72-.68-.76l-2.13-.22c-2.61,0-2.85-1.88-2.87-2.2l-.63-2.66c-.16-.68-.76-1.15-1.45-1.15h-5.88v14.38h-13.93v-.62h13.31v-14.38h6.51c.98,0,1.83.67,2.06,1.63l.65,2.76c0,.16.08,1.62,2.26,1.62h.03l2.15.22c.71.07,1.24.66,1.24,1.38v6.01c0,.76-.62,1.39-1.39,1.39h-.01Z"/>
  <path class="st0" d="M4.71,29.57H1.09V10.39c0-1.66,1.1-3.01,2.45-3.01h18.65c1.35,0,2.45,1.35,2.45,3.01v2.73h-.62v-2.73c0-1.32-.82-2.39-1.83-2.39H3.54c-1.01,0-1.83,1.07-1.83,2.39v18.56h3s0,.62,0,.62Z"/>
  <path class="st0" d="M7.65,32.62c-1.85,0-3.36-1.51-3.36-3.36s1.51-3.36,3.36-3.36,3.36,1.51,3.36,3.36-1.51,3.36-3.36,3.36ZM7.65,26.52c-1.51,0-2.74,1.23-2.74,2.74s1.23,2.74,2.74,2.74,2.74-1.23,2.74-2.74-1.23-2.74-2.74-2.74Z"/>
  <path class="st0" d="M30.74,32.62c-1.85,0-3.36-1.51-3.36-3.36s1.51-3.36,3.36-3.36,3.36,1.51,3.36,3.36-1.51,3.36-3.36,3.36ZM30.74,26.52c-1.51,0-2.74,1.23-2.74,2.74s1.23,2.74,2.74,2.74,2.74-1.23,2.74-2.74-1.23-2.74-2.74-2.74Z"/>
  <rect class="st0" x="24.32" y="20.63" width="4.36" height=".62"/>
  <rect class="st0" x="35.7" y="24.17" width="2.9" height=".62"/>
</svg>