<?xml version="1.0" encoding="UTF-8"?>
<svg id="Layer_1" xmlns="http://www.w3.org/2000/svg" version="1.1" viewBox="0 0 40 40">
  <!-- Generator: Adobe Illustrator 29.7.1, SVG Export Plug-In . SVG Version: 2.1.1 Build 8)  -->
  <defs>
    <style>
      .st0 {
        fill: none;
        stroke: #fff;
        stroke-miterlimit: 10;
        stroke-width: 1.67px;
      }
    </style>
  </defs>
  <g>
    <g>
      <path class="st0" d="M9.2,38.79l.04-4.26c0-.54-.18-1.06-.53-1.46l-4.63-5.49c-.65-.77-1-1.74-1-2.75v-9.27s-.1-1.44,1.54-1.5c0,0,1.59-.1,1.75,1.23l.02,5.06"/>
      <path class="st0" d="M10.67,28.75l-3.88-4.11s-.89-1.08.33-2.2c0,0,1.12-1.17,2.71.56,1.03,1.12,3.42,3.62,4.97,5.23.93.97,1.45,2.24,1.49,3.57l.18,6.99"/>
    </g>
    <g>
      <path class="st0" d="M30.8,38.79l-.04-4.26c0-.54.18-1.06.53-1.46l4.63-5.49c.65-.77,1-1.74,1-2.75v-9.27s.1-1.44-1.54-1.5c0,0-1.59-.1-1.75,1.23l-.02,5.06"/>
      <path class="st0" d="M29.33,28.75l3.88-4.11s.89-1.08-.33-2.2c0,0-1.12-1.17-2.71.56-1.03,1.12-3.42,3.62-4.97,5.23-.93.97-1.45,2.24-1.49,3.57l-.18,6.99"/>
    </g>
  </g>
  <path class="st0" d="M20,27.55C6.91,20.3,9.43,5.19,9.43,5.19c6.07.07,10.57-3.99,10.57-3.99,0,0,4.5,4.06,10.57,3.99,0,0,2.52,15.11-10.57,22.35Z"/>
  <polyline class="st0" points="16.07 14.29 18.91 16.96 23.93 11.8"/>
</svg>