<?xml version="1.0" encoding="utf-8"?>
<!-- Generator: Adobe Illustrator 25.4.1, SVG Export Plug-In . SVG Version: 6.00 Build 0)  -->
<svg version="1.1" id="Layer_1" xmlns="http://www.w3.org/2000/svg" xmlns:xlink="http://www.w3.org/1999/xlink" x="0px" y="0px"
	 viewBox="0 0 52 52" style="enable-background:new 0 0 52 52;" xml:space="preserve">
<style type="text/css">
	.st0{fill:#FFFFFF;}
</style>
<path class="st0" d="M43.9,8c-4.7-4.7-11.1-7.3-17.7-7.3c-13.8,0-25.1,11.2-25.1,25c0,4.5,1.1,8.7,3.3,12.6L0.8,51.3l13.4-3.4
	c3.7,2,7.8,3.1,12,3.1C40,50.9,51.2,39.7,51.2,25.8C51.2,19.1,48.6,12.8,43.9,8z M26.1,46.6c-3.7,0-7.5-1.1-10.6-3l-0.8-0.5l-7.9,2
	l2.2-7.6l-0.5-0.8c-2-3.3-3.2-7.2-3.2-11.1c0-11.5,9.3-20.7,20.8-20.7c5.5,0,10.7,2.2,14.6,6.1c3.9,3.9,6.1,9.2,6.1,14.8
	C47,37.4,37.5,46.6,26.1,46.6z M37.5,31c-0.7-0.3-3.7-1.9-4.4-2c-0.6-0.2-1.1-0.3-1.4,0.3c-0.3,0.6-1.6,1.9-1.9,2.4
	c-0.3,0.3-0.6,0.5-1.4,0.1c-0.6-0.3-2.6-0.9-5-3.2c-1.9-1.6-3.2-3.7-3.4-4.4c-0.3-0.7-0.1-0.9,0.3-1.3c0.3-0.3,0.6-0.6,0.9-1.1
	c0.3-0.3,0.3-0.7,0.6-1.1c0.3-0.3,0.1-0.8-0.1-1.1c-0.2-0.3-1.4-3.4-2-4.7c-0.5-1.3-1.1-1.1-1.4-1.1s-0.8,0-1.1,0s-1.1,0.1-1.6,0.8
	c-0.6,0.7-2.2,2.2-2.2,5.3s2.2,5.9,2.6,6.5c0.3,0.3,4.5,6.7,10.6,9.5c1.5,0.7,2.6,1.1,3.6,1.4c1.5,0.5,2.8,0.3,3.9,0.2
	c1.2-0.1,3.7-1.5,4.2-3c0.5-1.4,0.5-2.8,0.3-3C38.6,31.5,38.1,31.3,37.5,31z"/>
</svg>
